<?xml version="1.0" encoding="UTF-8"?>
<svg width="28px" height="23px" viewBox="0 0 28 23" version="1.1" xmlns="http://www.w3.org/2000/svg" xmlns:xlink="http://www.w3.org/1999/xlink">
    <!-- Generator: Sketch 64 (93537) - https://sketch.com -->
    <title>iconfinder_03-twitter_104501</title>
    <desc>Created with Sketch.</desc>
    <g id="Page-1" stroke="none" stroke-width="1" fill="none" fill-rule="evenodd">
        <g id="PlayboyHome_NON-MTC" transform="translate(-734.000000, -4062.000000)" fill="#2D2D2D" fill-rule="nonzero">
            <g id="Group" transform="translate(0.000000, 3698.000000)">
                <g id="Social" transform="translate(549.000000, 321.000000)">
                    <g id="iconfinder_03-twitter_104501" transform="translate(185.000000, 43.000000)">
                        <path d="M27.1999984,2.65158599 C26.2000756,3.10200311 25.1239577,3.40582485 23.9948345,3.54178927 C25.1476996,2.8423838 26.0316733,1.73452555 26.4485379,0.412928986 C25.3702114,1.06141773 24.176488,1.53197773 22.9049131,1.78600179 C21.8873218,0.687095927 20.436854,0 18.8317874,0 C15.7503025,0 13.2518759,2.53184778 13.2518759,5.65511282 C13.2518759,6.09769659 13.3010162,6.52908988 13.3965362,6.94369744 C8.75857285,6.70757816 4.64624538,4.45661161 1.89383502,1.03512009 C1.41347453,1.86993045 1.13850956,2.84126476 1.13850956,3.87862294 C1.13850956,5.84031538 2.12352463,7.57148379 3.62092421,8.58534195 C2.70658287,8.55568716 1.84579897,8.30110357 1.09323421,7.87754362 C1.09268207,7.90104364 1.09268207,7.92510319 1.09268207,7.94916274 C1.09268207,10.6885941 3.01633256,12.9736916 5.56942094,13.4940493 C5.1012075,13.6227399 4.60814783,13.6921209 4.09907614,13.6921209 C3.73908185,13.6921209 3.38957818,13.6568708 3.04890874,13.5902874 C3.75951097,15.8367778 5.82009181,17.4722675 8.26164821,17.517589 C6.35180118,19.0344596 3.94613378,19.938651 1.3312059,19.938651 C0.881213028,19.938651 0.436741545,19.9117938 0,19.8591985 C2.4702676,21.4644739 5.40322725,22.3999987 8.55428161,22.3999987 C18.8190883,22.3999987 24.431576,13.7833234 24.431576,6.31031586 C24.431576,6.06524418 24.4266067,5.82073203 24.4161161,5.57789845 C25.5060375,4.7822548 26.4524029,3.78574189 27.1999984,2.65158599 Z" id="Path"></path>
                    </g>
                </g>
            </g>
        </g>
    </g>
</svg>