<?xml version="1.0" encoding="UTF-8"?>
<svg width="12px" height="25px" viewBox="0 0 12 25" version="1.1" xmlns="http://www.w3.org/2000/svg" xmlns:xlink="http://www.w3.org/1999/xlink">
    <!-- Generator: Sketch 64 (93537) - https://sketch.com -->
    <title>Path</title>
    <desc>Created with Sketch.</desc>
    <g id="Page-1" stroke="none" stroke-width="1" fill="none" fill-rule="evenodd">
        <g id="PlayboyHome_NON-MTC" transform="translate(-615.000000, -4059.000000)" fill="#2D2D2D" fill-rule="nonzero">
            <g id="Group" transform="translate(0.000000, 3698.000000)">
                <g id="Social" transform="translate(549.000000, 321.000000)">
                    <g id="iconfinder_06-facebook_104498" transform="translate(66.000000, 40.000000)">
                        <path d="M11.996159,8.05836734 L8.08191934,8.05836734 L8.08191934,5.49119955 C8.08191934,4.52710363 8.72089529,4.30233565 9.17094325,4.30233565 C9.61996721,4.30233565 11.933183,4.30233565 11.933183,4.30233565 L11.933183,0.0639999948 L8.12902333,0.049151996 C3.90604768,0.049151996 2.94502376,3.21023974 2.94502376,5.23315157 L2.94502376,8.05836734 L0.502783959,8.05836734 L0.502783959,12.425727 L2.94502376,12.425727 C2.94502376,18.0305905 2.94502376,24.78387 2.94502376,24.78387 L8.08191934,24.78387 C8.08191934,24.78387 8.08191934,17.9640305 8.08191934,12.425727 L11.5481591,12.425727 L11.996159,8.05836734 Z" id="Path"></path>
                    </g>
                </g>
            </g>
        </g>
    </g>
</svg>